<mxfile host="app.diagrams.net" modified="2020-07-30T02:58:59.203Z" agent="5.0 (X11; Linux x86_64) AppleWebKit/537.36 (KHTML, like Gecko) Chrome/78.0.3904.108 Safari/537.36" etag="2Y8UQioMR61J4Xm8WigT" version="13.4.8" type="github">
  <diagram id="pb4unJg94PZyTR9nhU-j" name="Page-1">
    <mxGraphModel dx="1422" dy="806" grid="1" gridSize="10" guides="1" tooltips="1" connect="1" arrows="1" fold="1" page="1" pageScale="1" pageWidth="850" pageHeight="1100" math="0" shadow="0">
      <root>
        <mxCell id="0" />
        <mxCell id="1" parent="0" />
        <mxCell id="pgLkRgowdCIkQKl95Ikz-10" value="" style="edgeStyle=orthogonalEdgeStyle;rounded=0;orthogonalLoop=1;jettySize=auto;html=1;" edge="1" parent="1" source="pgLkRgowdCIkQKl95Ikz-2" target="pgLkRgowdCIkQKl95Ikz-4">
          <mxGeometry relative="1" as="geometry" />
        </mxCell>
        <mxCell id="pgLkRgowdCIkQKl95Ikz-2" value="准备任务" style="rounded=1;whiteSpace=wrap;html=1;" vertex="1" parent="1">
          <mxGeometry x="340" y="470" width="120" height="60" as="geometry" />
        </mxCell>
        <mxCell id="pgLkRgowdCIkQKl95Ikz-5" value="" style="edgeStyle=orthogonalEdgeStyle;rounded=0;orthogonalLoop=1;jettySize=auto;html=1;" edge="1" parent="1" source="pgLkRgowdCIkQKl95Ikz-4" target="2">
          <mxGeometry relative="1" as="geometry" />
        </mxCell>
        <mxCell id="pgLkRgowdCIkQKl95Ikz-4" value="提交任务" style="rounded=1;whiteSpace=wrap;html=1;" vertex="1" parent="1">
          <mxGeometry x="340" y="580" width="120" height="60" as="geometry" />
        </mxCell>
        <mxCell id="pgLkRgowdCIkQKl95Ikz-7" value="" style="edgeStyle=orthogonalEdgeStyle;rounded=0;orthogonalLoop=1;jettySize=auto;html=1;" edge="1" parent="1" source="2" target="pgLkRgowdCIkQKl95Ikz-6">
          <mxGeometry relative="1" as="geometry" />
        </mxCell>
        <mxCell id="2" value="查看任务状态" style="rounded=1;whiteSpace=wrap;html=1;" vertex="1" parent="1">
          <mxGeometry x="340" y="700" width="120" height="60" as="geometry" />
        </mxCell>
        <mxCell id="pgLkRgowdCIkQKl95Ikz-6" value="查看任务结果" style="rounded=1;whiteSpace=wrap;html=1;" vertex="1" parent="1">
          <mxGeometry x="340" y="820" width="120" height="60" as="geometry" />
        </mxCell>
      </root>
    </mxGraphModel>
  </diagram>
</mxfile>
